<svg
    width="758"
    height="500"
    viewBox="0 0 758 500"
    fill="none"
    xmlns="http://www.w3.org/2000/svg"
>
    <g clip-path="url(#clip0_3_73)">
        <path
            d="M49.8425 -11.8823V-2.59943L70.4957 -0.911682C95.0043 1.33875 108.498 6.68341 120.89 18.7793C144.021 41.5646 214.518 161.961 321.089 361.121C399.571 507.397 412.514 529.901 420.224 529.901C427.935 529.901 427.66 531.026 433.993 462.67L438.124 419.069L409.76 369.841C394.064 342.555 337.336 244.382 283.913 151.553C230.49 58.7239 185.328 -18.0709 183.676 -19.1961C182.023 -20.3214 151.181 -21.4465 115.382 -21.4465H49.8425V-11.8823Z"
            fill="white"
        />
        <path
            d="M332.655 -19.7588C331.553 -18.6336 330.727 -14.1328 330.727 -9.91333C330.727 -2.03694 335.959 1.05736 349.177 1.05736C359.091 1.05736 385.252 12.028 394.614 20.1857C414.166 37.0637 417.471 62.662 407.833 124.829C400.122 174.619 400.122 175.463 411.688 175.463H421.051L424.355 150.709C429.312 114.984 441.979 66.0376 451.617 45.2214C464.836 17.3727 484.663 3.02644 516.056 -0.630447C530.926 -2.31824 531.752 -2.88084 531.752 -10.1946C531.752 -14.4141 530.1 -18.6336 528.448 -19.1962C522.114 -21.4466 334.858 -22.0092 332.655 -19.7588Z"
            fill="white"
        />
        <path
            d="M573.454 -18.6693C569.874 -14.1685 545.09 68.5336 545.09 75.5661C545.09 78.3791 558.033 130.701 573.729 191.743C589.426 252.785 601.542 303.7 600.991 305.107C600.441 306.232 563.265 307.076 518.378 307.076C473.767 306.794 436.867 307.076 436.316 307.638C436.041 308.201 434.939 311.858 433.838 316.077L432.185 323.954H517.277C564.091 323.954 604.296 324.798 606.774 325.641C611.731 327.611 616.688 343.926 634.863 417.626C645.603 461.228 647.53 472.199 645.327 480.638C641.472 496.109 629.631 503.142 602.644 505.673L580.889 507.642V518.332V529.302L683.605 528.74L786.045 527.896V518.05C786.045 507.642 786.871 508.205 760.71 501.172C746.115 497.516 734.549 487.67 728.766 473.886C726.288 467.979 694.344 356.303 657.994 225.499C621.645 94.6945 590.803 -14.1685 589.426 -16.4189C586.397 -22.0449 577.034 -23.1701 573.454 -18.6693Z"
            fill="white"
        />
        <path
            d="M116.484 116.671L107.121 125.11L80.1341 290.515C61.1331 406.691 51.4949 459.294 47.6397 466.89C36.0738 489.675 19.2758 499.239 -22.5814 505.99C-32.7704 507.678 -33.0458 507.959 -32.2196 518.086L-31.3935 528.494H58.104H147.601V518.93C147.601 508.522 148.428 508.803 120.064 502.052C92.2507 495.301 77.3804 478.142 77.3804 453.106C77.3804 443.26 115.933 174.9 125.571 116.953C126.397 112.171 126.948 107.951 126.397 107.951C125.847 107.951 121.441 111.889 116.484 116.671Z"
            fill="white"
        />
    </g>
    <defs>
        <clipPath id="clip0_3_73">
        <rect
            width="758"
            height="500"
            fill="white"
        />
        </clipPath>
    </defs>
</svg>
